<svg width="16" height="8" viewBox="0 0 16 8" fill="none" xmlns="http://www.w3.org/2000/svg">
<path d="M11.8047 1.13807C12.065 0.877722 12.065 0.455612 11.8047 0.195262C11.5443 -0.0650874 11.1222 -0.0650874 10.8619 0.195262L4.66663 6.39052L1.8047 3.5286C1.54435 3.26825 1.12224 3.26825 0.861888 3.5286C0.601539 3.78894 0.601539 4.21106 0.861888 4.4714L4.19522 7.80474C4.45557 8.06509 4.87768 8.06509 5.13803 7.80474L11.8047 1.13807Z" fill="#E94057"/>
<path d="M15.138 1.13807C15.3984 0.877722 15.3984 0.455612 15.138 0.195262C14.8777 -0.0650874 14.4556 -0.0650874 14.1952 0.195262L7.99681 6.39367C7.73513 6.18623 7.35372 6.20343 7.11189 6.44526C6.85154 6.70561 6.85154 7.12772 7.11189 7.38807L7.52855 7.80474C7.7889 8.06509 8.21101 8.06509 8.47136 7.80474L15.138 1.13807Z" fill="#E94057"/>
<path d="M5.5547 3.94526L5.13803 3.5286C4.87768 3.26825 4.45557 3.26825 4.19522 3.5286C3.93487 3.78894 3.93487 4.21106 4.19522 4.4714L4.61189 4.88807C4.87224 5.14842 5.29435 5.14842 5.5547 4.88807C5.81505 4.62772 5.81505 4.20561 5.5547 3.94526Z" fill="#E94057"/>
</svg>
